<svg xmlns="http://www.w3.org/2000/svg" viewBox="0 0 1200 900" role="img" aria-labelledby="title desc">
  <title id="title">أصل معروض</title>
  <desc id="desc">صورة بديلة محلية لبطاقات عرض الأصول.</desc>
  <defs>
    <linearGradient id="bg" x1="0%" y1="0%" x2="100%" y2="100%">
      <stop offset="0%" stop-color="#0d0d0d" />
      <stop offset="55%" stop-color="#241708" />
      <stop offset="100%" stop-color="#0a0a0a" />
    </linearGradient>
    <linearGradient id="gold" x1="0%" y1="0%" x2="100%" y2="0%">
      <stop offset="0%" stop-color="#f6e3a0" />
      <stop offset="100%" stop-color="#c7901c" />
    </linearGradient>
  </defs>

  <rect width="1200" height="900" fill="url(#bg)" />
  <rect x="110" y="110" width="980" height="680" rx="46" fill="#111113" stroke="#d4af37" stroke-opacity="0.35" stroke-width="4" />
  <rect x="170" y="170" width="860" height="360" rx="30" fill="#1b1b1d" />
  <path d="M220 466c96-120 182-205 258-256 94 46 214 144 360 293" fill="none" stroke="url(#gold)" stroke-width="16" stroke-linecap="round" stroke-linejoin="round" opacity="0.92" />
  <circle cx="794" cy="272" r="56" fill="#f0d98b" opacity="0.92" />
  <rect x="170" y="580" width="500" height="28" rx="14" fill="#efe0b2" />
  <rect x="170" y="632" width="390" height="22" rx="11" fill="#efe0b2" opacity="0.72" />
  <rect x="170" y="680" width="240" height="18" rx="9" fill="url(#gold)" opacity="0.96" />
  <g opacity="0.18" fill="#d4af37">
    <circle cx="170" cy="90" r="10" />
    <circle cx="1030" cy="800" r="12" />
    <circle cx="1080" cy="170" r="8" />
  </g>
</svg>
